<svg xmlns="http://www.w3.org/2000/svg" viewBox="0 0 1133.5 722.6"><defs><style>.cls-1{fill:#fff;}</style></defs><title>logo black &amp;amp; white</title><g id="Capa_2" data-name="Capa 2"><g id="Capa_7" data-name="Capa 7"><path class="cls-1" d="M2.27,576.32l2.09-158a11.94,11.94,0,0,1,4.05-9,13.2,13.2,0,0,1,9.29-3.79h94.15a30.62,30.62,0,0,1,11.51,1.83,14.3,14.3,0,0,1,6.8,5.49A22.63,22.63,0,0,1,133.3,422a90.16,90.16,0,0,1,.78,12.56q0,6.54.13,17.26t0,21.58q-.14,10.84-.65,19.61t-2.09,11.12a50.35,50.35,0,0,1-5.1,6.93q-2.49,2.74-7.46,2.22a17.84,17.84,0,0,1,7.2,4.71,18,18,0,0,1,3.53,6,23.65,23.65,0,0,1,1.18,6.28c.08,2.09.13,4.1.13,6V572.4a18.92,18.92,0,0,1-2.49,9.28,13.81,13.81,0,0,1-6.54,5.37,34.43,34.43,0,0,1-10.46,2.35q-6.15.52-14.25.52H15.6a12.51,12.51,0,0,1-9.54-4A13.5,13.5,0,0,1,2.27,576.32Zm73.49-16.21a16.24,16.24,0,0,0,8.11-5q3.66-3.93,3.66-13.6a26,26,0,0,0-.79-5.76,26.5,26.5,0,0,0-2.35-6.4,21.21,21.21,0,0,0-3.79-5.23,7.32,7.32,0,0,0-5.36-2.23,4.3,4.3,0,0,0-3.8,2.49,14.22,14.22,0,0,0-1.7,6.14L69,551.21a13.68,13.68,0,0,0,1.18,7.2C71.09,560.24,73,560.81,75.76,560.11Zm1-79.51a30.58,30.58,0,0,0,6.27-.13A11.06,11.06,0,0,0,89,477.72a16.44,16.44,0,0,0,4.44-6.8,33.47,33.47,0,0,0,1.7-11.77q0-10.2-4.18-14.38a20.17,20.17,0,0,0-9.42-5.5q-5.24-1.31-6.4,1.83a34.11,34.11,0,0,0-1.71,8.37l-1,17.79a40.15,40.15,0,0,1-.26,4.58,15.22,15.22,0,0,0,0,4.05A6.38,6.38,0,0,0,73.4,479,4.84,4.84,0,0,0,76.81,480.6Z"/><path class="cls-1" d="M153.17,406.84H275.32a21,21,0,0,1,6.66.79,6,6,0,0,1,3.4,3.79,27.29,27.29,0,0,1,1.31,8.89q.13,5.9.13,16.09v25.89q0,10.2-.52,16.22t-2.22,8.36a5.6,5.6,0,0,1-4.84,2.36l-22.76,1.83q2.1,8.37,8.5,11.77t18.18,3.4c2.44,0,4.06,1.27,4.84,3.79a25.26,25.26,0,0,1,1.18,7.45l.78,61.47q0,6.79-5,10.07a20.07,20.07,0,0,1-11.25,3.27q-18.83,0-29-8.77a50.36,50.36,0,0,1-14.91-22.88,120.42,120.42,0,0,1-5.62-31.78q-.92-17.65-1.17-35.44a20.69,20.69,0,0,0-2.36.13,13.22,13.22,0,0,1-1.57.13h-1.57v80.56a16.08,16.08,0,0,1-16.21,16.22l-48.39-.53a13,13,0,0,1-9.41-3.79,12.38,12.38,0,0,1-3.93-9.28l-.26-156.41a13.15,13.15,0,0,1,3.92-9.67A13.47,13.47,0,0,1,153.17,406.84Zm62.77,29.82.53,20.66a10.63,10.63,0,0,0,1.57,6,4.61,4.61,0,0,0,3.92,2.35,7.52,7.52,0,0,0,5.36-2.09,18.39,18.39,0,0,0,3.79-5.23,30.26,30.26,0,0,0,2.36-6.41,24.84,24.84,0,0,0,.78-5.62q0-9.94-3.66-13.87a16.07,16.07,0,0,0-8.11-5q-4.18-1-5.49,1.83A15.46,15.46,0,0,0,215.94,436.66Z"/><path class="cls-1" d="M295.45,428q0-11.25,7.46-15.83a37,37,0,0,1,17.65-5.1q5.24-.25,13.6-.26h37.92q10.2,0,19.1.13t15.56.13h9.54q12,0,16,6.15t3.4,20.79l-.52,83.43q-.8,8.89-3.41,12.56T421,534.22q-2.36,0-8.89.25t-15.56.53q-9,.27-19.75.52t-21.45.26q-15.42,0-28.9-.65T307,532.91a10.62,10.62,0,0,1-5.49-3,19.15,19.15,0,0,1-3.4-5,21.88,21.88,0,0,1-1.83-5.49,24.43,24.43,0,0,1-.53-4.58q-.52-11.5-.65-21.84t0-20.66q.13-10.33.26-21.19T295.45,428Zm.79,127.11c.69-4.19,1.48-7.06,2.35-8.63s2.79-2.36,5.75-2.36H423.61a8.69,8.69,0,0,1,7.19,3.53,17.76,17.76,0,0,1,3.53,7.46A21.69,21.69,0,0,1,435,560c.09,2,.14,4.14.14,6.4s-.05,4.54-.14,6.8a38.66,38.66,0,0,1-.65,6,14.27,14.27,0,0,1-3.53,7.85,9.48,9.48,0,0,1-7.19,2.87H301.73q-3.41,0-4.84-4.57a41.18,41.18,0,0,1-1.7-10.6,90,90,0,0,1,.26-11.77Q296,557.23,296.24,555.14Zm46.29-57.28c0,.87,0,2,.13,3.27a11.28,11.28,0,0,0,.78,3.53,7.09,7.09,0,0,0,2.1,2.75,5.8,5.8,0,0,0,4.31.91,8.21,8.21,0,0,0,5.1-1.83c1.14-1,1.87-3.75,2.23-8.11l1.57-55.18a14.71,14.71,0,0,0-1.05-6.28,9.38,9.38,0,0,0-2.36-3.14,8.3,8.3,0,0,0-3.39-1.31q-3.93,0-5.37,2.49a16.52,16.52,0,0,0-2,5.36q-2.36,18-2.74,31.52A229.4,229.4,0,0,0,342.53,497.86Z"/><path class="cls-1" d="M448,406.32h107.5a9.6,9.6,0,0,1,6.27,2.88,8.52,8.52,0,0,1,2.62,6.27v21.45a8.46,8.46,0,0,1-2.88,6.54,9.19,9.19,0,0,1-7.06,2.35l-12.81.79,1,135.48a7.26,7.26,0,0,1-4.71,5.75,11.65,11.65,0,0,1-7.06,2.09H471.81a13.25,13.25,0,0,1-7.06-2.09c-2.27-.87-3.83-2.79-4.7-5.75l1.3-135.48-12.29-.79a9.19,9.19,0,0,1-7.06-2.35,8.46,8.46,0,0,1-2.88-6.54V415.47a8.56,8.56,0,0,1,2.62-6.27A9.6,9.6,0,0,1,448,406.32Z"/><path class="cls-1" d="M700.72,406.06a11.67,11.67,0,0,1,8.76,3.66,11.42,11.42,0,0,1,3.27,8.89l-1.57,159.28a12,12,0,0,1-3.66,8.11,11.37,11.37,0,0,1-8.37,3.4l-26.41.52a12.08,12.08,0,0,1-12.3-12.29l.79-21.19a12,12,0,0,0-1.7-6.4c-1.13-1.83-3-2.75-5.62-2.75q-3.67,0-4.45,2.49a20.71,20.71,0,0,0-.78,6.14l.26,22a10.88,10.88,0,0,1-3.53,8.11,11.82,11.82,0,0,1-8.5,3.4l-57,.52a12.06,12.06,0,0,1-12.29-12.29l1.57-159.54a11.15,11.15,0,0,1,3.53-8.37,11.82,11.82,0,0,1,8.5-3.4l58.32-.26a12.1,12.1,0,0,1,8.89,3.66,11.24,11.24,0,0,1,3.4,8.89L650,501.52a17.52,17.52,0,0,0,.53,6.28q.78,2.61,4.44,2.61c2.44,0,4.19-.82,5.24-2.48a11.32,11.32,0,0,0,1.56-6.15l.79-83.69a12.32,12.32,0,0,1,3.66-8.37,11.4,11.4,0,0,1,8.37-3.4Z"/><path class="cls-1" d="M718,576.32l.78-159.54a13.46,13.46,0,0,1,4.05-8.63,11.86,11.86,0,0,1,8.5-3.4l98.08-.52a12.34,12.34,0,0,1,8.9,3.53,12.66,12.66,0,0,1,3.92,8.76L843.79,506a12.28,12.28,0,0,1-3.53,9.28,11.94,11.94,0,0,1-9,4.06H808.48a11.66,11.66,0,0,0-8.63,3.4,12.3,12.3,0,0,0-3.66,8.37q-.53,8.89-.4,16.87t.13,13.2a6.25,6.25,0,0,0,1.58,4.19,4.94,4.94,0,0,0,3.92,1.83,6.3,6.3,0,0,0,4.44-1.7,5.63,5.63,0,0,0,1.83-4.32l.27-18a10.82,10.82,0,0,1,3.27-8,11.77,11.77,0,0,1,8-3.53l12.56-1.05A11.56,11.56,0,0,1,840,534a10.88,10.88,0,0,1,3.52,8.11l.27,34.26a12.94,12.94,0,0,1-13.08,13.08l-99.91.52a12.66,12.66,0,0,1-9.42-4A11.58,11.58,0,0,1,718,576.32Zm76.63-132.86,2.61,33.21a4.3,4.3,0,0,0,1.7,3.14,5,5,0,0,0,3,1.05,4.88,4.88,0,0,0,3.14-1.05,4.55,4.55,0,0,0,1.57-3.14l3.4-32.95a7.22,7.22,0,0,0-2-6.28,7.39,7.39,0,0,0-6.15-2.35,8.88,8.88,0,0,0-5.49,2.88A7,7,0,0,0,794.62,443.46Z"/><path class="cls-1" d="M862.88,406.84H985a21.12,21.12,0,0,1,6.67.79,6,6,0,0,1,3.4,3.79,27.57,27.57,0,0,1,1.31,8.89q.12,5.9.13,16.09v25.89q0,10.2-.53,16.22t-2.22,8.36a5.6,5.6,0,0,1-4.84,2.36l-22.75,1.83q2.09,8.37,8.5,11.77t18.17,3.4c2.44,0,4.06,1.27,4.84,3.79a24.93,24.93,0,0,1,1.18,7.45l.79,61.47c0,4.53-1.67,7.89-5,10.07a20.12,20.12,0,0,1-11.25,3.27q-18.83,0-29-8.77a50.36,50.36,0,0,1-14.91-22.88,120,120,0,0,1-5.62-31.78q-.93-17.65-1.18-35.44a20.51,20.51,0,0,0-2.35.13,13.22,13.22,0,0,1-1.57.13h-1.57v80.56A16.08,16.08,0,0,1,911,590.45l-48.38-.53a13.06,13.06,0,0,1-9.42-3.79,12.38,12.38,0,0,1-3.92-9.28L849,420.44a13.11,13.11,0,0,1,3.92-9.67A13.44,13.44,0,0,1,862.88,406.84Zm62.77,29.82.52,20.66a10.63,10.63,0,0,0,1.57,6,4.63,4.63,0,0,0,3.92,2.35A7.54,7.54,0,0,0,937,463.6a18.78,18.78,0,0,0,3.79-5.23,30.22,30.22,0,0,0,2.35-6.41,24.36,24.36,0,0,0,.79-5.62q0-9.94-3.67-13.87a16.08,16.08,0,0,0-8.1-5q-4.2-1-5.5,1.83A15.47,15.47,0,0,0,925.65,436.66Z"/><path class="cls-1" d="M1022.94,406.58h90a16.81,16.81,0,0,1,12.69,5.36,18.12,18.12,0,0,1,5.1,12.95q0,14.91-.27,27.85t-.26,25a8.89,8.89,0,0,1-2.87,6.67,9.87,9.87,0,0,1-7.07,2.75l-43.15-.53a8.31,8.31,0,0,1-6.54-3,10,10,0,0,1-2.61-6.67,52.4,52.4,0,0,0-.92-10.46q-.91-4.46-6.15-4.45-4.44,0-5.75,2.61a16,16,0,0,0-1.31,7.06,24.4,24.4,0,0,0,4.45,14.26q4.44,6.42,13.34,6.93l39.75,2.62a25.47,25.47,0,0,1,10.73,3.79,19.59,19.59,0,0,1,5.88,6.15,21.6,21.6,0,0,1,2.62,7.32,48.22,48.22,0,0,1,.65,7.84v50.48a18,18,0,0,1-4.84,13.34,16.9,16.9,0,0,1-13,5.49l-98.34-.26a9.56,9.56,0,0,1-7.06-2.88,8.73,8.73,0,0,1-2.61-7.06V522.44a11.17,11.17,0,0,1,11-11h25.9a9.8,9.8,0,0,1,7.58,3.53,12.69,12.69,0,0,1,3.4,7.72l.26,10.2q.53,4.71,3.27,7.06a8.88,8.88,0,0,0,5.88,2.35,7.75,7.75,0,0,0,5.63-2.48q2.48-2.49,2.48-7.72,0-8.88-2-13.07t-7.32-6.94a102,102,0,0,0-14.78-5.75q-9.4-3-24.32-9.28a30.05,30.05,0,0,1-9.16-5,21.92,21.92,0,0,1-5.23-6.28,21.31,21.31,0,0,1-2.35-7.32,63.31,63.31,0,0,1-.52-8.37c-.18-4.54-.27-8.63-.27-12.3V424.63a16.41,16.41,0,0,1,5.1-12.82A17.9,17.9,0,0,1,1022.94,406.58Z"/><path class="cls-1" d="M1.91,608.66A5.85,5.85,0,0,1,4,604.07a11.57,11.57,0,0,1,5.46-2,60.4,60.4,0,0,1,8.65-.52q5.11,0,11.87-.18,5.19-.17,12.9-.17H58.27q7.7,0,14.2.09c4.33.06,7.41.08,9.26.08a29.76,29.76,0,0,1,3.55.18,3.79,3.79,0,0,1,2.34,1,5.34,5.34,0,0,1,1.21,2.94,36.59,36.59,0,0,1,.35,5.71c0,2.66,0,5.61.08,8.84s.12,6.49.18,9.78,0,6.49,0,9.61a67.79,67.79,0,0,1-.61,8.31,11.49,11.49,0,0,1-4.15,7.62A12.87,12.87,0,0,1,76,658.53H46.93a10.2,10.2,0,0,0-5.2,1c-1.15.69-1.73,1.44-1.73,2.25s.61,1.53,1.82,2.16a11.58,11.58,0,0,0,5.28.95l32.73-.69a6.65,6.65,0,0,1,5.63,2.6,9.89,9.89,0,0,1,2.5,5.89q.18,3.28.18,7.7c0,3-.06,6.06-.18,9.35s-.26,6.67-.43,10.13-.37,6.76-.6,9.87c-.12,2.2-.26,4-.44,5.54a12.9,12.9,0,0,1-.86,3.64,4.11,4.11,0,0,1-2,2.08,10.74,10.74,0,0,1-4,.86c-1.27.12-3.6.21-7,.26l-12,.18q-6.84.09-14.63.08t-15-.26q-7.18-.25-13.16-.78A52.82,52.82,0,0,1,8.83,720a8.82,8.82,0,0,1-3.64-1.65A9.17,9.17,0,0,1,3,715.93a9.38,9.38,0,0,1-1.12-2.77c-.24-1-.41-1.88-.53-2.69Q.69,703,.35,694T0,675.5q0-9.53.26-19.14t.52-18.44q.25-8.83.6-16.36T1.91,608.66Z"/><path class="cls-1" d="M93,615.41q0-7.44,4.93-10.48a24.46,24.46,0,0,1,11.69-3.37q3.47-.18,9-.18h25.11q6.76,0,12.64.09c3.93.06,7.36.09,10.31.09H173q8,0,10.56,4.07t2.25,13.76l-.35,55.24q-.51,5.89-2.25,8.31t-7.1,2.77c-1,0-3,.06-5.88.18s-6.32.23-10.31.34-8.34.23-13.07.35-9.47.17-14.2.17q-10.21,0-19.13-.43a70.49,70.49,0,0,1-12.9-1.47,7,7,0,0,1-3.64-2,12.48,12.48,0,0,1-2.25-3.29,15,15,0,0,1-1.21-3.64,16,16,0,0,1-.35-3q-.34-7.62-.43-14.46t0-13.68q.09-6.84.17-14T93,615.41Zm.52,84.16a20.17,20.17,0,0,1,1.55-5.72q.87-1.56,3.81-1.56h79a5.76,5.76,0,0,1,4.76,2.34,11.81,11.81,0,0,1,2.34,4.94,15.1,15.1,0,0,1,.43,3.2c.06,1.33.08,2.74.08,4.24s0,3-.08,4.5a27.24,27.24,0,0,1-.43,4,9.48,9.48,0,0,1-2.34,5.19,6.3,6.3,0,0,1-4.76,1.91H97.14q-2.25,0-3.2-3a27.86,27.86,0,0,1-1.13-7,59.16,59.16,0,0,1,.18-7.79C93.22,702.22,93.39,700.49,93.51,699.57Zm30.64-37.93c0,.58,0,1.3.09,2.17a7.43,7.43,0,0,0,.52,2.34,4.55,4.55,0,0,0,1.39,1.81,3.83,3.83,0,0,0,2.86.61,5.46,5.46,0,0,0,3.37-1.21q1.13-1,1.47-5.37l1-36.54a9.66,9.66,0,0,0-.69-4.15,6,6,0,0,0-1.56-2.08,5.45,5.45,0,0,0-2.25-.87c-1.73,0-2.92.55-3.55,1.65a10.83,10.83,0,0,0-1.3,3.55q-1.56,11.94-1.82,20.86A154.78,154.78,0,0,0,124.15,661.64Z"/><path class="cls-1" d="M201.73,601h28.75a14.66,14.66,0,0,1,8.65,2.68,16.5,16.5,0,0,1,5.72,7.19l15.06,44.15a2.69,2.69,0,0,0,2.77,1.91,3.31,3.31,0,0,0,2-.69,2.4,2.4,0,0,0,1-2.08l.17-46.06a7.41,7.41,0,0,1,7.45-7.45h8.48a7,7,0,0,1,5.28,2.25,7.31,7.31,0,0,1,2.17,5.2V712a10.35,10.35,0,0,1-10.57,10.57h-4.84a10.13,10.13,0,0,1-5.8-1.82,10.4,10.4,0,0,1-3.9-4.76l-8.31-20.09a5.22,5.22,0,0,0-5-3.46,5.74,5.74,0,0,0-3.64,1.38,4.79,4.79,0,0,0-1.73,4v10.91a13.51,13.51,0,0,1-4,9.79,13.08,13.08,0,0,1-9.7,4.07h-30a12.12,12.12,0,0,1-12.12-12.13V613.16A12.12,12.12,0,0,1,201.73,601Z"/><path class="cls-1" d="M304.59,601.21h54.19a11.14,11.14,0,0,1,8.4,3.55,12,12,0,0,1,3.38,8.57q0,9.87-.17,18.1t-.18,16.19a6.21,6.21,0,0,1-6.58,6.23l-13.33-.34a4.85,4.85,0,0,1-3.38-1,4.91,4.91,0,0,1-1.47-2.6,15.68,15.68,0,0,1-.34-3.38v-3.55c0-2.54-.47-4.41-1.39-5.62a3.9,3.9,0,0,0-3.12-1.82,4,4,0,0,0-3.11,1.64,8.45,8.45,0,0,0-1.56,5.11v8.14c0,2.65.8,4.39,2.42,5.19a28.47,28.47,0,0,0,7.45,2.08q7.09,1.56,11.77,2.17a29.24,29.24,0,0,1,7.36,1.73,7.36,7.36,0,0,1,3.9,3.55c.81,1.62,1.21,4.21,1.21,7.79v7.53q0,5.3.09,11.17t.17,11.08q.09,5.21.09,7.45a11.45,11.45,0,0,1-3.47,8.83,11.83,11.83,0,0,1-8.65,3.64l-58.71-.18a6.35,6.35,0,0,1-4.67-1.9,5.8,5.8,0,0,1-1.73-4.68l.34-25.8a5.65,5.65,0,0,1,2.17-4.67,8.14,8.14,0,0,1,5.28-1.73h28.22a7.22,7.22,0,0,1,5.29,2.16,7,7,0,0,1,2.16,5.11c0,2.65.35,4.39,1,5.19a4.32,4.32,0,0,0,3.46,1.22q3.28,0,4-1.74a10.17,10.17,0,0,0,.69-3.81q0-5-2.69-7.53a13.15,13.15,0,0,0-7.18-3.2l-31.86-6.41a23,23,0,0,1-8.14-4.16q-2.78-2.41-2.95-8.48c0-2.88,0-6.52-.08-10.91s-.09-8.92-.09-13.59,0-9.21-.09-13.6-.08-8-.08-10.73a10.85,10.85,0,0,1,3.37-8.49A11.88,11.88,0,0,1,304.59,601.21Z"/><path class="cls-1" d="M379.91,601.38h93.51a6.6,6.6,0,0,1,4.15,1.82,5.42,5.42,0,0,1,1.73,4.07v36a5.6,5.6,0,0,1-1.9,4.33,6.14,6.14,0,0,1-4.68,1.56L453.33,648,454,717.4a4.79,4.79,0,0,1-3.11,3.81,7.74,7.74,0,0,1-4.68,1.39H407.09a8.74,8.74,0,0,1-4.67-1.39,5.35,5.35,0,0,1-3.12-3.81l.87-69.44-19.57,1.22a6.1,6.1,0,0,1-4.67-1.56,5.58,5.58,0,0,1-1.91-4.33v-36a5.42,5.42,0,0,1,1.73-4.07A6.61,6.61,0,0,1,379.91,601.38Z"/><path class="cls-1" d="M492.29,600q5-.18,12.73-.17t16.53-.09q8.84-.09,17.92-.09h16.89q7.78,0,13.59.18c3.87.11,6.49.23,7.88.34a5.86,5.86,0,0,1,4.59,3,25.46,25.46,0,0,1,3,7.1,61.91,61.91,0,0,1,1.82,9.78q.6,5.46.86,11t.35,10.65q.09,5.11.09,9.1v12.89q0,5.46-.35,9.36a23.5,23.5,0,0,1-1.3,6.32,9.1,9.1,0,0,1-3,4,13.85,13.85,0,0,1-3.46,1.64,33.7,33.7,0,0,1-5.2,1.3,18.91,18.91,0,0,1,6.32,2.08,11.62,11.62,0,0,1,4.76,4,9.81,9.81,0,0,1,1,3,27.38,27.38,0,0,1,.44,4.33c.05,1.73.05,3.87,0,6.4s-.09,5.66-.09,9.35a6.9,6.9,0,0,1-2.17,5.2,7.14,7.14,0,0,1-5.1,2.08H552.55a7.4,7.4,0,0,1-7.27-7.28V693.51a4.78,4.78,0,0,0-1.48-3.64,5,5,0,0,0-3.55-1.39,5.21,5.21,0,0,0-3.46,1.65,4.8,4.8,0,0,0-1.38,3.38v18.35a10.07,10.07,0,0,1-3.12,7.53,10.53,10.53,0,0,1-7.62,3l-32-.17a8.51,8.51,0,0,1-6.23-2.6,8.31,8.31,0,0,1-2.6-6.06L483.46,609a8.93,8.93,0,0,1,2.51-6.32A8.27,8.27,0,0,1,492.29,600Zm42.08,56.1.34,13.85a7.08,7.08,0,0,0,1,4,3.05,3.05,0,0,0,2.6,1.56,4.39,4.39,0,0,0,2.94-1.22,13.84,13.84,0,0,0,3.72-4.41,15,15,0,0,0,1.48-7.19q0-6.57-2.34-9.17a10.17,10.17,0,0,0-5.28-3.29q-3-.69-3.81,1.21A9.67,9.67,0,0,0,534.37,656.1Z"/><path class="cls-1" d="M600.86,602.08h36.88a7.5,7.5,0,0,1,5.11,1.9,7.4,7.4,0,0,1,2.51,4.85l.35,32.9c0,3,.57,5.28,1.73,6.84s2.36,2.34,3.63,2.34,2.4-.75,3.38-2.25,1.48-3.87,1.48-7.1l.51-33.77a7.93,7.93,0,0,1,7.8-6.93l9.17.18a7.93,7.93,0,0,1,5.8,2.86,6.85,6.85,0,0,1,1.65,6.14l-1.39,104.42a9.12,9.12,0,0,1-3.29,5.8,9.63,9.63,0,0,1-6.4,2.34H601a7.33,7.33,0,0,1-4.85-1.74,6.72,6.72,0,0,1-2.42-4.5l-.17-106a7.36,7.36,0,0,1,1.81-5.8A6.92,6.92,0,0,1,600.86,602.08Z"/><path class="cls-1" d="M686.05,608.66a5.89,5.89,0,0,1,2.08-4.59,11.57,11.57,0,0,1,5.45-2,60.64,60.64,0,0,1,8.66-.52q5.12,0,11.86-.18,5.21-.17,12.9-.17h15.42q7.7,0,14.2.09c4.33.06,7.41.08,9.26.08a29.88,29.88,0,0,1,3.55.18,3.79,3.79,0,0,1,2.34,1,5.42,5.42,0,0,1,1.21,2.94,36.81,36.81,0,0,1,.34,5.71q0,4,.09,8.84t.18,9.78q.07,4.93,0,9.61a69.83,69.83,0,0,1-.61,8.31,11.51,11.51,0,0,1-4.16,7.62,12.85,12.85,0,0,1-8.65,3.12h-29.1a10.19,10.19,0,0,0-5.19,1c-1.16.69-1.73,1.44-1.73,2.25s.61,1.53,1.82,2.16a11.58,11.58,0,0,0,5.28.95l32.73-.69a6.62,6.62,0,0,1,5.62,2.6,9.85,9.85,0,0,1,2.51,5.89q.18,3.28.18,7.7c0,3-.06,6.06-.18,9.35s-.26,6.67-.43,10.13-.38,6.76-.6,9.87c-.12,2.2-.26,4-.44,5.54a12.9,12.9,0,0,1-.86,3.64,4.09,4.09,0,0,1-2,2.08,10.68,10.68,0,0,1-4,.86q-1.9.18-7,.26l-11.95.18q-6.84.09-14.63.08t-15-.26q-7.18-.25-13.16-.78A52.82,52.82,0,0,1,693,720a8.76,8.76,0,0,1-3.64-1.65,9.17,9.17,0,0,1-2.16-2.42,9.68,9.68,0,0,1-1.13-2.77c-.23-1-.4-1.88-.52-2.69q-.69-7.44-1-16.44t-.35-18.53q0-9.53.26-19.14t.52-18.44q.26-8.83.6-16.36T686.05,608.66Z"/><path class="cls-1" d="M782.85,601.38h93.51a6.58,6.58,0,0,1,4.15,1.82,5.38,5.38,0,0,1,1.73,4.07v36a5.6,5.6,0,0,1-1.9,4.33,6.13,6.13,0,0,1-4.67,1.56L856.27,648,857,717.4a4.79,4.79,0,0,1-3.11,3.81,7.72,7.72,0,0,1-4.68,1.39H810a8.75,8.75,0,0,1-4.68-1.39,5.35,5.35,0,0,1-3.12-3.81l.87-69.44-19.57,1.22a6.13,6.13,0,0,1-4.67-1.56,5.58,5.58,0,0,1-1.91-4.33v-36a5.42,5.42,0,0,1,1.73-4.07A6.61,6.61,0,0,1,782.85,601.38Z"/><path class="cls-1" d="M885.71,608.14a7.18,7.18,0,0,1,2.33-5.37,7.43,7.43,0,0,1,5.29-2.25l25.62-.17a7.12,7.12,0,0,1,5.46,2.33,8,8,0,0,1,2.16,5.63L924.67,715a6.76,6.76,0,0,1-2.34,5.11,7.58,7.58,0,0,1-5.28,2.16l-23.55.35a7.68,7.68,0,0,1-7.79-7.8Z"/><path class="cls-1" d="M1046.05,601h28.75a14.69,14.69,0,0,1,8.66,2.68,16.48,16.48,0,0,1,5.71,7.19l15.06,44.15A2.69,2.69,0,0,0,1107,657a3.37,3.37,0,0,0,2-.69,2.42,2.42,0,0,0,1-2.08l.17-46.06a7.39,7.39,0,0,1,7.45-7.45h8.48a7,7,0,0,1,5.28,2.25,7.31,7.31,0,0,1,2.17,5.2V712a10.35,10.35,0,0,1-10.57,10.57h-4.84a10.19,10.19,0,0,1-5.81-1.82,10.44,10.44,0,0,1-3.89-4.76l-8.31-20.09a5.22,5.22,0,0,0-5-3.46,5.74,5.74,0,0,0-3.64,1.38,4.79,4.79,0,0,0-1.73,4v10.91a13.48,13.48,0,0,1-4,9.79,13,13,0,0,1-9.69,4.07h-30a12.12,12.12,0,0,1-12.12-12.13V613.16A12.12,12.12,0,0,1,1046.05,601Z"/><path class="cls-1" d="M934.14,614.54q0-7.44,4.93-10.47a24.39,24.39,0,0,1,11.69-3.38q3.47-.16,9-.17h25.1q6.76,0,12.65.08t10.3.09h6.32q8,0,10.56,4.07t2.25,13.77l-.34,55.23q-.52,5.9-2.26,8.32c-1.15,1.62-3.52,2.54-7.09,2.77-1,0-3,.06-5.89.17s-6.32.23-10.3.35-8.35.23-13.08.34-9.46.18-14.2.18q-10.21,0-19.13-.44a69.6,69.6,0,0,1-12.9-1.47,7.09,7.09,0,0,1-3.64-2,13,13,0,0,1-2.25-3.29,14.69,14.69,0,0,1-1.21-3.64,16.84,16.84,0,0,1-.35-3q-.34-7.6-.43-14.46t0-13.68q.09-6.82.17-14T934.14,614.54Zm.52,84.16a19.57,19.57,0,0,1,1.56-5.71q.85-1.56,3.81-1.56h79a5.74,5.74,0,0,1,4.76,2.34,11.77,11.77,0,0,1,2.34,4.93,14.56,14.56,0,0,1,.43,3.2c.06,1.33.09,2.75.09,4.25s0,3-.09,4.5a25.79,25.79,0,0,1-.43,4,9.48,9.48,0,0,1-2.34,5.2,6.27,6.27,0,0,1-4.76,1.9H938.3c-1.51,0-2.57-1-3.21-3a27.43,27.43,0,0,1-1.12-7,57.65,57.65,0,0,1,.17-7.8C934.37,701.36,934.54,699.63,934.66,698.7Zm30.65-37.92c0,.58,0,1.3.08,2.16a7.58,7.58,0,0,0,.52,2.34,4.65,4.65,0,0,0,1.39,1.82,3.84,3.84,0,0,0,2.86.6,5.38,5.38,0,0,0,3.37-1.21q1.13-1,1.47-5.37l1-36.53a9.71,9.71,0,0,0-.69-4.16,6.18,6.18,0,0,0-1.56-2.08,5.3,5.3,0,0,0-2.25-.86c-1.73,0-2.92.55-3.55,1.64a11.06,11.06,0,0,0-1.3,3.55q-1.56,12-1.81,20.87A150.1,150.1,0,0,0,965.31,660.78Z"/><path d="M518.37,361.77q-8.42,7-17,7L283.74,366.5q-10.29-.06-15.22-6.62t-1.7-16.49l69.23-192.15q3.45-10.44,14-17.72t22-7.2l117.1,1.16c7.25,0,12.49,2.35,15.7,6.89s3.56,10.14,1,16.75L444.37,315.58q-1.81,4.71.61,8.12c1.61,2.28,4.13,3.42,7.56,3.44a18.67,18.67,0,0,0,10.56-3.61,15.59,15.59,0,0,0,6.84-8.85l23.65-70.5a38,38,0,0,1,12.25-17.72q8.82-7.28,16.83-7.24l35.85.72c5.34,0,9.05,2.33,11.12,6.87s1.85,10.13-.69,16.73L530.81,344.31A41.73,41.73,0,0,1,518.37,361.77Zm13-271.2Q527.95,101,517.51,108A38.19,38.19,0,0,1,495.63,115l-117.1-1.16q-10.87-.06-15.71-6.89t-1.59-16.75l27.56-65.77Q392.24,14,402.66,6.94A38.28,38.28,0,0,1,424.53,0L541.07,1.16q10.88.06,15.7,6.89t1.59,16.75Z"/><path d="M611.27,344.31,573.14,243.54q-3.81-9.9-.69-16.73c2.07-4.54,5.77-6.84,11.12-6.87l35.85-.72q8,0,16.83,7.24a38.09,38.09,0,0,1,12.25,17.72l23.64,70.5a15.68,15.68,0,0,0,6.84,8.85,18.72,18.72,0,0,0,10.57,3.61c3.43,0,6-1.16,7.56-3.44s1.81-5,.61-8.12L636.26,151.12q-3.79-9.92,1-16.75c3.21-4.54,8.45-6.85,15.7-6.89l117.1-1.16q11.45-.06,22,7.2t14,17.72l69.23,192.15q3.22,9.92-1.7,16.49t-15.23,6.62l-217.61,2.24q-8.58,0-17-7A41.84,41.84,0,0,1,611.27,344.31ZM583.73,24.8q-3.26-9.91,1.59-16.75T601,1.16L717.56,0a38.28,38.28,0,0,1,21.87,6.94q10.44,7,13.87,17.45l27.56,65.77q3.24,9.93-1.59,16.75t-15.71,6.89L646.46,115A38.19,38.19,0,0,1,624.58,108q-10.43-7-13.87-17.45Z"/><path d="M619.36,177.74a11.5,11.5,0,0,1-3.74,9.91,15.1,15.1,0,0,1-10.78,3.94l-66.76-.66A15.49,15.49,0,0,1,527.54,187a14.06,14.06,0,0,1-4.87-9.51l.09-37.34a11.53,11.53,0,0,1,3.74-9.91,15.1,15.1,0,0,1,10.78-3.94l66.43.66a15.45,15.45,0,0,1,10.55,3.91,14,14,0,0,1,4.86,9.51Z"/><rect class="cls-1" x="408.67" y="75.58" width="86.66" height="15.08" rx="7.54" ry="7.54"/><rect class="cls-1" x="649.05" y="75.58" width="86.66" height="15.08" rx="7.54" ry="7.54"/><rect class="cls-1" x="537.62" y="161.97" width="66.85" height="15.08" rx="6.62" ry="6.62"/></g></g></svg>