<svg xmlns="http://www.w3.org/2000/svg" viewBox="0 0 1133.5 318.37"><defs><style>.cls-1{fill:#00a8fc;}</style></defs><title>naming blue2</title><g id="Capa_2" data-name="Capa 2"><g id="Capa_7" data-name="Capa 7"><path class="cls-1" d="M134.22,47.6q-.14-10.71-.13-17.26a89.89,89.89,0,0,0-.79-12.55,22.73,22.73,0,0,0-3.14-9.16,14.3,14.3,0,0,0-6.8-5.49,30.58,30.58,0,0,0-11.51-1.83H17.7A13.26,13.26,0,0,0,8.41,5.1a12,12,0,0,0-4,9l-2.09,158a13.49,13.49,0,0,0,3.79,9.54,12.49,12.49,0,0,0,9.55,4.06h81.6q8.1,0,14.25-.53a34,34,0,0,0,10.46-2.35,13.85,13.85,0,0,0,6.54-5.36,19,19,0,0,0,2.49-9.29V132.08c0-1.91,0-3.92-.13-6a23.12,23.12,0,0,0-1.18-6.28,17,17,0,0,0-10.73-10.72c3.32.35,5.8-.4,7.46-2.23a50.35,50.35,0,0,0,5.1-6.93q1.58-2.35,2.09-11.11t.66-19.62Q134.34,58.34,134.22,47.6ZM83.87,150.91a16.1,16.1,0,0,1-8.11,5c-2.79.7-4.67.13-5.62-1.7A13.74,13.74,0,0,1,69,147l.79-20.66a14.13,14.13,0,0,1,1.7-6.15,4.28,4.28,0,0,1,3.79-2.48,7.31,7.31,0,0,1,5.36,2.22,21.14,21.14,0,0,1,3.79,5.23,27,27,0,0,1,2.36,6.41,26.47,26.47,0,0,1,.78,5.75Q87.53,147,83.87,150.91ZM93.42,66.7A16.61,16.61,0,0,1,89,73.5a11,11,0,0,1-5.89,2.74,29.22,29.22,0,0,1-6.27.13,4.76,4.76,0,0,1-3.4-1.57,6.26,6.26,0,0,1-1.31-3.13,15.29,15.29,0,0,1,0-4.06A40.15,40.15,0,0,0,72.36,63l1-17.78a34,34,0,0,1,1.7-8.37q1.17-3.14,6.41-1.83a20.08,20.08,0,0,1,9.41,5.49q4.18,4.18,4.18,14.39A33.77,33.77,0,0,1,93.42,66.7Z"/><path class="cls-1" d="M289.18,113.25A24.88,24.88,0,0,0,288,105.8c-.78-2.53-2.4-3.8-4.84-3.8-7.84,0-13.91-1.13-18.17-3.4s-7.11-6.18-8.51-11.77L279.24,85a5.62,5.62,0,0,0,4.84-2.35c1.13-1.57,1.87-4.35,2.22-8.37s.52-9.42.52-16.21V32.17q0-10.2-.13-16.08a27.32,27.32,0,0,0-1.31-8.9A6,6,0,0,0,282,3.4a21.48,21.48,0,0,0-6.67-.78H153.18a13.47,13.47,0,0,0-9.94,3.92,13.16,13.16,0,0,0-3.93,9.68l.27,156.4a12.41,12.41,0,0,0,3.92,9.29,13,13,0,0,0,9.41,3.79l48.39.52A16.07,16.07,0,0,0,217.51,170V89.45h1.57a13.22,13.22,0,0,0,1.57-.13,18.63,18.63,0,0,1,2.36-.13q.26,17.79,1.18,35.44a119.46,119.46,0,0,0,5.62,31.77,50.45,50.45,0,0,0,14.91,22.89q10.2,8.76,29,8.76A20,20,0,0,0,285,184.78q5-3.25,5-10.07ZM233.47,47.73a29.82,29.82,0,0,1-2.35,6.41,18.46,18.46,0,0,1-3.8,5.23,7.52,7.52,0,0,1-5.36,2.1A4.6,4.6,0,0,1,218,59.11a10.59,10.59,0,0,1-1.57-6L216,32.43a15.47,15.47,0,0,1,1-7.32c.87-1.92,2.7-2.52,5.49-1.83a16.09,16.09,0,0,1,8.11,5c2.44,2.61,3.66,7.24,3.66,13.86A24.7,24.7,0,0,1,233.47,47.73Z"/><path class="cls-1" d="M435,155.75a21.7,21.7,0,0,0-.66-4.84,17.72,17.72,0,0,0-3.53-7.45,8.69,8.69,0,0,0-7.19-3.53H304.35q-4.46,0-5.76,2.35c-.87,1.57-1.66,4.45-2.35,8.63q-.27,2.1-.79,7.85a90,90,0,0,0-.26,11.77,41.18,41.18,0,0,0,1.7,10.59q1.44,4.57,4.84,4.58H423.61a9.48,9.48,0,0,0,7.19-2.88,14.2,14.2,0,0,0,3.53-7.84,38.71,38.71,0,0,0,.66-6c.08-2.26.13-4.53.13-6.8S435.07,157.76,435,155.75ZM432.24,9q-3.93-6.15-15.95-6.15h-9.55q-6.67,0-15.56-.13t-19.09-.13H334.16q-8.37,0-13.6.26A36.79,36.79,0,0,0,302.91,8q-7.46,4.57-7.46,15.82,0,12.3-.13,23.15t-.26,21.18q-.13,10.35,0,20.67t.66,21.83a25.07,25.07,0,0,0,.52,4.58,22.29,22.29,0,0,0,1.83,5.49,19.15,19.15,0,0,0,3.4,5,10.49,10.49,0,0,0,5.49,3q6,1.57,19.49,2.23t28.9.65q10.71,0,21.44-.26t19.75-.53q9-.26,15.56-.52T421,130q8.11-.53,10.73-4.19t3.4-12.55l.52-83.43Q436.17,15.18,432.24,9ZM357.18,94.16q-.53,6.54-2.23,8.11a8.27,8.27,0,0,1-5.1,1.83,5.81,5.81,0,0,1-4.31-.92,6.94,6.94,0,0,1-2.09-2.74,11.07,11.07,0,0,1-.79-3.54c-.09-1.3-.13-2.39-.13-3.27a231.68,231.68,0,0,1-.65-26q.39-13.47,2.74-31.51a16.45,16.45,0,0,1,2-5.36Q348,28.25,352,28.25a8.25,8.25,0,0,1,3.4,1.31,9.26,9.26,0,0,1,2.35,3.14A14.5,14.5,0,0,1,358.75,39Z"/><path class="cls-1" d="M561.79,5a9.65,9.65,0,0,0-6.28-2.88H448A9.63,9.63,0,0,0,441.74,5a8.6,8.6,0,0,0-2.62,6.28V32.7A8.45,8.45,0,0,0,442,39.23a9.2,9.2,0,0,0,7.06,2.36l12.29.78-1.3,135.48q1.31,4.46,4.7,5.76a13.34,13.34,0,0,0,7.07,2.09h59.1a11.77,11.77,0,0,0,7.07-2.09,7.28,7.28,0,0,0,4.7-5.76l-1-135.48,12.81-.78a9.2,9.2,0,0,0,7.06-2.36,8.45,8.45,0,0,0,2.88-6.53V11.25A8.59,8.59,0,0,0,561.79,5Z"/><path class="cls-1" d="M709.49,5.5a11.67,11.67,0,0,0-8.76-3.67l-26.16.26A11.37,11.37,0,0,0,666.2,5.5a12.3,12.3,0,0,0-3.66,8.37l-.78,83.69a11.31,11.31,0,0,1-1.57,6.14c-1.05,1.66-2.8,2.49-5.23,2.49s-3.93-.87-4.45-2.62A17.51,17.51,0,0,1,650,97.3l1.83-82.91a11.26,11.26,0,0,0-3.4-8.89,12.11,12.11,0,0,0-8.9-3.67l-58.32.26a11.81,11.81,0,0,0-8.5,3.41,11.17,11.17,0,0,0-3.53,8.37L567.6,173.41a12.06,12.06,0,0,0,12.29,12.29l57-.53a11.83,11.83,0,0,0,8.5-3.39,10.89,10.89,0,0,0,3.53-8.11l-.26-22a20.83,20.83,0,0,1,.78-6.15c.53-1.65,2-2.48,4.45-2.48,2.61,0,4.49.91,5.62,2.74a12,12,0,0,1,1.7,6.41l-.78,21.19a12.06,12.06,0,0,0,12.29,12.29l26.42-.53a11.4,11.4,0,0,0,8.37-3.39,12.13,12.13,0,0,0,3.66-8.11l1.57-159.28A11.48,11.48,0,0,0,709.49,5.5Z"/><path class="cls-1" d="M840,129.73a11.5,11.5,0,0,0-8.24-3.4l-12.56,1a11.85,11.85,0,0,0-8,3.54,10.8,10.8,0,0,0-3.27,8l-.26,18.05a5.66,5.66,0,0,1-1.83,4.31,6.3,6.3,0,0,1-4.45,1.7,4.94,4.94,0,0,1-3.92-1.83,6.2,6.2,0,0,1-1.57-4.18q0-5.24-.13-13.21t.39-16.87a12.32,12.32,0,0,1,3.66-8.37,11.7,11.7,0,0,1,8.63-3.4h22.75a12,12,0,0,0,9-4,12.3,12.3,0,0,0,3.53-9.29L842.22,12.3a12.66,12.66,0,0,0-3.92-8.77A12.38,12.38,0,0,0,829.4,0L731.33.53a11.82,11.82,0,0,0-8.51,3.4,13.42,13.42,0,0,0-4.05,8.63L718,172.1a11.54,11.54,0,0,0,3.4,9.54,12.6,12.6,0,0,0,9.41,4.06l99.91-.53a12.94,12.94,0,0,0,13.08-13.07l-.26-34.26A10.89,10.89,0,0,0,840,129.73Zm-43.55-96a8.93,8.93,0,0,1,5.49-2.88,7.4,7.4,0,0,1,6.15,2.36,7.21,7.21,0,0,1,2,6.28l-3.4,33a4.57,4.57,0,0,1-1.57,3.14,4.85,4.85,0,0,1-3.14,1,5,5,0,0,1-3-1,4.31,4.31,0,0,1-1.69-3.14l-2.62-33.22A7,7,0,0,1,796.45,33.74Z"/><path class="cls-1" d="M998.88,113.25a24.88,24.88,0,0,0-1.18-7.45q-1.17-3.8-4.83-3.8-11.77,0-18.18-3.4t-8.5-11.77L988.94,85a5.6,5.6,0,0,0,4.84-2.35c1.13-1.57,1.87-4.35,2.23-8.37s.52-9.42.52-16.21V32.17q0-10.2-.13-16.08a27.59,27.59,0,0,0-1.31-8.9,6,6,0,0,0-3.4-3.79A21.43,21.43,0,0,0,985,2.62H862.88a13.5,13.5,0,0,0-9.94,3.92A13.15,13.15,0,0,0,849,16.22l.26,156.4a12.45,12.45,0,0,0,3.92,9.29,13.08,13.08,0,0,0,9.42,3.79l48.38.52A16.08,16.08,0,0,0,927.22,170V89.45h1.57a13.22,13.22,0,0,0,1.57-.13,18.46,18.46,0,0,1,2.35-.13q.25,17.79,1.18,35.44a119.86,119.86,0,0,0,5.62,31.77,50.45,50.45,0,0,0,14.91,22.89q10.2,8.76,29,8.76a20,20,0,0,0,11.25-3.27q5-3.25,5-10.07ZM943.17,47.73a29.82,29.82,0,0,1-2.35,6.41A18.44,18.44,0,0,1,937,59.37a7.54,7.54,0,0,1-5.36,2.1,4.63,4.63,0,0,1-3.93-2.36,10.67,10.67,0,0,1-1.57-6l-.52-20.67a15.34,15.34,0,0,1,1.05-7.32c.87-1.92,2.7-2.52,5.49-1.83a16.17,16.17,0,0,1,8.11,5c2.44,2.61,3.66,7.24,3.66,13.86A24.22,24.22,0,0,1,943.17,47.73Z"/><path class="cls-1" d="M1130.57,108.54a21.75,21.75,0,0,0-2.62-7.32,19.58,19.58,0,0,0-5.88-6.15,25.42,25.42,0,0,0-10.73-3.79l-39.75-2.61q-8.89-.53-13.34-6.94a24.43,24.43,0,0,1-4.44-14.25,16,16,0,0,1,1.3-7.06c.87-1.74,2.79-2.62,5.76-2.62,3.48,0,5.53,1.49,6.14,4.45a52.47,52.47,0,0,1,.92,10.46,9.91,9.91,0,0,0,2.61,6.67,8.3,8.3,0,0,0,6.54,3l43.16.52a9.85,9.85,0,0,0,7.06-2.74,8.92,8.92,0,0,0,2.88-6.67q0-12,.26-25t.26-27.85a18.1,18.1,0,0,0-5.1-13,16.81,16.81,0,0,0-12.69-5.36h-90A17.83,17.83,0,0,0,1010,7.59a16.33,16.33,0,0,0-5.1,12.81V53.62q0,5.49.26,12.29a63.09,63.09,0,0,0,.52,8.37A21,21,0,0,0,1008,81.6a21.6,21.6,0,0,0,5.23,6.28,29.66,29.66,0,0,0,9.15,5q14.91,6.29,24.32,9.29a100.36,100.36,0,0,1,14.78,5.75c3.57,1.83,6,4.14,7.32,6.93s2,7.15,2,13.08q0,5.23-2.49,7.71a7.75,7.75,0,0,1-5.62,2.49,8.89,8.89,0,0,1-5.89-2.36c-1.83-1.56-2.92-3.92-3.27-7.06l-.26-10.2a12.59,12.59,0,0,0-3.4-7.71,9.76,9.76,0,0,0-7.58-3.53h-25.9a11.15,11.15,0,0,0-11,11V175.5a8.71,8.71,0,0,0,2.62,7.06,9.58,9.58,0,0,0,7.06,2.88l98.34.26a16.89,16.89,0,0,0,12.94-5.49,18,18,0,0,0,4.84-13.34V116.39A48.34,48.34,0,0,0,1130.57,108.54Z"/><path class="cls-1" d="M89.44,225.64q-.09-4.94-.17-9.78T89.18,207a36.59,36.59,0,0,0-.35-5.71,5.38,5.38,0,0,0-1.21-2.95,3.91,3.91,0,0,0-2.34-1,32.3,32.3,0,0,0-3.55-.17q-2.76,0-9.26-.09T58.27,197H42.86q-7.71,0-12.9.17-6.75.18-11.86.17a61.94,61.94,0,0,0-8.66.52,11.68,11.68,0,0,0-5.46,2,5.87,5.87,0,0,0-2.07,4.59q-.18,5.37-.52,12.9T.78,233.7q-.26,8.82-.52,18.44T0,271.27q0,9.53.35,18.53t1,16.45a25.53,25.53,0,0,0,.52,2.68A9.6,9.6,0,0,0,3,311.71a9.35,9.35,0,0,0,2.17,2.42,8.71,8.71,0,0,0,3.63,1.64,53.64,53.64,0,0,0,9.09,1.39q6,.52,13.16.78t15,.26c5.2,0,10.07,0,14.64-.09s8.53-.11,11.94-.17,5.74-.14,7-.26a10.52,10.52,0,0,0,4-.87,4.13,4.13,0,0,0,2-2.07,13.07,13.07,0,0,0,.86-3.64c.18-1.5.32-3.35.44-5.54q.34-4.68.6-9.87c.18-3.47.32-6.84.44-10.13s.17-6.41.17-9.35-.06-5.51-.17-7.71a10,10,0,0,0-2.51-5.89A6.64,6.64,0,0,0,79.83,260l-32.73.69a11.72,11.72,0,0,1-5.28-.95c-1.21-.64-1.82-1.36-1.82-2.17s.58-1.56,1.73-2.25a10.36,10.36,0,0,1,5.2-1H76a12.91,12.91,0,0,0,8.66-3.11,11.49,11.49,0,0,0,4.15-7.62,68.09,68.09,0,0,0,.61-8.31Q89.53,230.58,89.44,225.64Z"/><path class="cls-1" d="M185.37,298.54a14.56,14.56,0,0,0-.43-3.2,11.83,11.83,0,0,0-2.34-4.93,5.74,5.74,0,0,0-4.76-2.34h-79q-3,0-3.81,1.56a19.67,19.67,0,0,0-1.56,5.71c-.12.93-.29,2.66-.52,5.2a57.47,57.47,0,0,0-.17,7.79,27.36,27.36,0,0,0,1.12,7q.94,3,3.21,3h80.69a6.27,6.27,0,0,0,4.76-1.9,9.48,9.48,0,0,0,2.34-5.2,25.79,25.79,0,0,0,.43-4q.09-2.25.09-4.5C185.46,301.29,185.43,299.87,185.37,298.54Zm-1.82-97.14q-2.6-4.07-10.56-4.07h-6.32c-2.95,0-6.38,0-10.31-.08s-8.13-.09-12.64-.09h-25.1q-5.55,0-9,.17a24.47,24.47,0,0,0-11.69,3.38q-4.94,3-4.93,10.48,0,8.13-.09,15.32t-.17,14q-.09,6.84,0,13.68t.43,14.45a17,17,0,0,0,.35,3,14.75,14.75,0,0,0,1.21,3.63A13,13,0,0,0,97,278.63a7,7,0,0,0,3.64,2,69.39,69.39,0,0,0,12.9,1.48q8.91.42,19.13.43,7.1,0,14.2-.18t13.08-.34q6-.17,10.3-.35c2.88-.11,4.85-.17,5.88-.17q5.37-.35,7.1-2.77t2.26-8.31l.34-55.24C186,208.7,185.28,204.12,183.55,201.4Zm-49.7,56.37q-.34,4.32-1.47,5.36a5.44,5.44,0,0,1-3.37,1.22,3.89,3.89,0,0,1-2.86-.61,4.65,4.65,0,0,1-1.39-1.82,7.58,7.58,0,0,1-.52-2.34c-.06-.86-.08-1.58-.08-2.16a150.1,150.1,0,0,1-.43-17.23q.26-8.91,1.81-20.87a11.06,11.06,0,0,1,1.3-3.55c.63-1.09,1.82-1.64,3.55-1.64a5.32,5.32,0,0,1,2.25.87,6,6,0,0,1,1.56,2.07,9.71,9.71,0,0,1,.69,4.16Z"/><path class="cls-1" d="M287,198.72a7,7,0,0,0-5.28-2.25h-8.48a7.39,7.39,0,0,0-7.45,7.44L265.63,250a2.39,2.39,0,0,1-1,2.08,3.31,3.31,0,0,1-2,.69,2.7,2.7,0,0,1-2.78-1.9l-15.06-44.16a16.4,16.4,0,0,0-5.72-7.18,14.63,14.63,0,0,0-8.65-2.69H201.73a12.12,12.12,0,0,0-12.12,12.12v97.32a12.12,12.12,0,0,0,12.12,12.12h30a13,13,0,0,0,9.7-4.07,13.49,13.49,0,0,0,4-9.78V293.61a4.78,4.78,0,0,1,1.73-4,5.69,5.69,0,0,1,3.64-1.39,5.23,5.23,0,0,1,5,3.46l8.31,20.09a10.35,10.35,0,0,0,3.9,4.76,10.06,10.06,0,0,0,5.8,1.82h4.84a10.35,10.35,0,0,0,10.57-10.56V203.91A7.24,7.24,0,0,0,287,198.72Z"/><path class="cls-1" d="M345.45,245.64a4.43,4.43,0,0,0,4.85,3.64l13.34.35a6,6,0,0,0,4.58-1.65,5.93,5.93,0,0,0,2-4.59q0-7.95.18-16.19t.17-18.09a11.94,11.94,0,0,0-3.38-8.57,11.1,11.1,0,0,0-8.39-3.55h-54.2a11.8,11.8,0,0,0-8.57,3.46,10.85,10.85,0,0,0-3.38,8.48c0,2.78,0,6.35.09,10.74s.08,8.92.08,13.59,0,9.21.09,13.6.09,8,.09,10.91q.17,6.06,2.94,8.48a23.14,23.14,0,0,0,8.14,4.16l31.86,6.4a13.29,13.29,0,0,1,7.19,3.21q2.69,2.5,2.68,7.53a10.21,10.21,0,0,1-.69,3.81c-.47,1.15-1.79,1.73-4,1.73a4.34,4.34,0,0,1-3.46-1.21q-1-1.22-1-5.2a7,7,0,0,0-2.16-5.1,7.18,7.18,0,0,0-5.28-2.17H301a8.2,8.2,0,0,0-5.28,1.73,5.71,5.71,0,0,0-2.17,4.68l-.34,25.8a5.76,5.76,0,0,0,1.73,4.67,6.33,6.33,0,0,0,4.68,1.91l58.7.17a11.84,11.84,0,0,0,8.66-3.63,11.5,11.5,0,0,0,3.46-8.84c0-1.49,0-4-.09-7.44s-.11-7.16-.17-11.08-.09-7.65-.09-11.17v-7.54q0-5.35-1.21-7.79a7.43,7.43,0,0,0-3.9-3.55,29.68,29.68,0,0,0-7.36-1.73q-4.67-.6-11.77-2.16a28.47,28.47,0,0,1-7.45-2.08q-2.42-1.22-2.42-5.2V238a8.45,8.45,0,0,1,1.56-5.11,4,4,0,0,1,3.11-1.65,3.92,3.92,0,0,1,3.12,1.82c.92,1.21,1.39,3.09,1.39,5.63v3.55A15.52,15.52,0,0,0,345.45,245.64Z"/><path class="cls-1" d="M477.57,199a6.53,6.53,0,0,0-4.15-1.82H379.91a6.5,6.5,0,0,0-4.15,1.82,5.38,5.38,0,0,0-1.74,4.07v36a5.59,5.59,0,0,0,1.91,4.33A6,6,0,0,0,380.6,245l19.57-1.21-.87,69.44a5.37,5.37,0,0,0,3.12,3.81,8.83,8.83,0,0,0,4.68,1.38h39.13a7.81,7.81,0,0,0,4.68-1.38,4.81,4.81,0,0,0,3.11-3.81l-.69-69.44L472.72,245a6.06,6.06,0,0,0,4.68-1.56,5.59,5.59,0,0,0,1.91-4.33v-36A5.41,5.41,0,0,0,477.57,199Z"/><path class="cls-1" d="M588.48,237.42c-.06-3.4-.17-6.95-.35-10.65s-.46-7.36-.86-11a62.35,62.35,0,0,0-1.82-9.78,25.72,25.72,0,0,0-3-7.1,5.82,5.82,0,0,0-4.59-2.94c-1.38-.12-4-.23-7.88-.35s-8.4-.17-13.59-.17H539.47q-9.08,0-17.92.08T505,195.6q-7.71,0-12.73.17a8.28,8.28,0,0,0-6.32,2.69,8.91,8.91,0,0,0-2.51,6.32l.34,104.59a8.31,8.31,0,0,0,2.6,6.06,8.51,8.51,0,0,0,6.24,2.6l32,.17a10.53,10.53,0,0,0,7.62-3,10.07,10.07,0,0,0,3.12-7.53V289.28a4.82,4.82,0,0,1,1.38-3.38,5.25,5.25,0,0,1,3.47-1.64,5,5,0,0,1,3.54,1.39,4.75,4.75,0,0,1,1.48,3.63V311.1a7.38,7.38,0,0,0,7.27,7.27h27.88a7.13,7.13,0,0,0,5.11-2.08,6.89,6.89,0,0,0,2.16-5.19q0-5.53.09-9.35t0-6.41a29.06,29.06,0,0,0-.43-4.33,10.13,10.13,0,0,0-1-2.94,11.65,11.65,0,0,0-4.77-4,18.62,18.62,0,0,0-6.32-2.08,34.27,34.27,0,0,0,5.2-1.3,13.83,13.83,0,0,0,3.46-1.65,8.92,8.92,0,0,0,3-4,23,23,0,0,0,1.3-6.32c.23-2.6.35-5.71.35-9.35v-12.9Q588.57,242.54,588.48,237.42ZM545,265.64a13.93,13.93,0,0,1-3.73,4.42,4.38,4.38,0,0,1-2.94,1.21,3.05,3.05,0,0,1-2.6-1.56,7,7,0,0,1-1-4l-.34-13.85a9.71,9.71,0,0,1,.69-4.68c.58-1.27,1.84-1.67,3.81-1.21a10.23,10.23,0,0,1,5.28,3.29q2.34,2.59,2.34,9.18A14.94,14.94,0,0,1,545,265.64Z"/><path class="cls-1" d="M679.22,199.67a8,8,0,0,0-5.81-2.86l-9.17-.17a7.88,7.88,0,0,0-7.79,6.93l-.52,33.76c0,3.24-.5,5.6-1.48,7.1s-2.1,2.25-3.37,2.25-2.49-.78-3.64-2.33-1.73-3.84-1.73-6.84l-.35-32.9a7.34,7.34,0,0,0-2.51-4.85,7.49,7.49,0,0,0-5.11-1.91H600.86a6.9,6.9,0,0,0-5.45,2.51,7.35,7.35,0,0,0-1.82,5.8l.17,106a6.7,6.7,0,0,0,2.43,4.5,7.28,7.28,0,0,0,4.84,1.73h68.75a9.66,9.66,0,0,0,6.41-2.34,9.12,9.12,0,0,0,3.28-5.8l1.39-104.41A6.89,6.89,0,0,0,679.22,199.67Z"/><path class="cls-1" d="M773.59,225.64q-.09-4.94-.18-9.78c-.06-3.23-.08-6.17-.08-8.83a36.59,36.59,0,0,0-.35-5.71,5.38,5.38,0,0,0-1.21-2.95,3.91,3.91,0,0,0-2.34-1,32.3,32.3,0,0,0-3.55-.17c-1.85,0-4.93,0-9.26-.09s-9.07-.08-14.2-.08H727q-7.71,0-12.9.17-6.75.18-11.87.17a61.89,61.89,0,0,0-8.65.52,11.68,11.68,0,0,0-5.46,2,5.87,5.87,0,0,0-2.07,4.59q-.18,5.37-.53,12.9t-.6,16.37q-.25,8.82-.52,18.44t-.26,19.13q0,9.53.35,18.53t1,16.45c.12.81.29,1.71.53,2.68a9.33,9.33,0,0,0,1.12,2.78,9.49,9.49,0,0,0,2.16,2.42,8.82,8.82,0,0,0,3.64,1.64,53.64,53.64,0,0,0,9.09,1.39q6,.52,13.16.78t15,.26q7.78,0,14.63-.09t11.95-.17c3.41-.06,5.74-.14,7-.26a10.52,10.52,0,0,0,4-.87,4.13,4.13,0,0,0,2-2.07,13.07,13.07,0,0,0,.86-3.64c.18-1.5.32-3.35.44-5.54q.34-4.68.6-9.87c.17-3.47.32-6.84.43-10.13s.18-6.41.18-9.35-.06-5.51-.18-7.71a9.89,9.89,0,0,0-2.5-5.89A6.64,6.64,0,0,0,764,260l-32.73.69a11.72,11.72,0,0,1-5.28-.95c-1.21-.64-1.82-1.36-1.82-2.17s.58-1.56,1.73-2.25a10.31,10.31,0,0,1,5.2-1h29.09a12.91,12.91,0,0,0,8.66-3.11,11.49,11.49,0,0,0,4.15-7.62,68.09,68.09,0,0,0,.61-8.31Q773.67,230.58,773.59,225.64Z"/><path class="cls-1" d="M880.51,199a6.53,6.53,0,0,0-4.15-1.82H782.85A6.5,6.5,0,0,0,778.7,199a5.38,5.38,0,0,0-1.74,4.07v36a5.59,5.59,0,0,0,1.91,4.33,6.05,6.05,0,0,0,4.67,1.56l19.57-1.21-.86,69.44a5.34,5.34,0,0,0,3.11,3.81,8.83,8.83,0,0,0,4.68,1.38h39.13a7.76,7.76,0,0,0,4.68-1.38,4.81,4.81,0,0,0,3.11-3.81l-.69-69.44,19.4,1.21a6.05,6.05,0,0,0,4.67-1.56,5.59,5.59,0,0,0,1.9-4.33v-36A5.37,5.37,0,0,0,880.51,199Z"/><path class="cls-1" d="M924.41,198.46a7.13,7.13,0,0,0-5.46-2.34l-25.62.17a7.43,7.43,0,0,0-5.28,2.25,7.22,7.22,0,0,0-2.34,5.37V310.58a7.68,7.68,0,0,0,7.79,7.79l23.55-.34a7.55,7.55,0,0,0,5.28-2.17,6.73,6.73,0,0,0,2.34-5.11l1.91-106.66A8,8,0,0,0,924.41,198.46Z"/><path class="cls-1" d="M1131.34,198.72a7.08,7.08,0,0,0-5.29-2.25h-8.48a7.39,7.39,0,0,0-7.45,7.44L1110,250a2.41,2.41,0,0,1-1,2.08,3.37,3.37,0,0,1-2,.69,2.7,2.7,0,0,1-2.77-1.9l-15.06-44.16a16.45,16.45,0,0,0-5.71-7.18,14.7,14.7,0,0,0-8.66-2.69h-28.75a12.12,12.12,0,0,0-12.12,12.12v97.32a12.12,12.12,0,0,0,12.12,12.12h30a13,13,0,0,0,9.7-4.07,13.49,13.49,0,0,0,4-9.78V293.61a4.81,4.81,0,0,1,1.73-4,5.71,5.71,0,0,1,3.64-1.39,5.23,5.23,0,0,1,5,3.46l8.31,20.09a10.41,10.41,0,0,0,3.9,4.76,10.08,10.08,0,0,0,5.8,1.82h4.85a10.35,10.35,0,0,0,10.56-10.56V203.91A7.27,7.27,0,0,0,1131.34,198.72Z"/><path class="cls-1" d="M1026.52,297.68a14.38,14.38,0,0,0-.43-3.2,11.81,11.81,0,0,0-2.34-4.94,5.74,5.74,0,0,0-4.76-2.34H940c-2,0-3.23.52-3.81,1.56a19.76,19.76,0,0,0-1.56,5.72c-.12.92-.29,2.65-.52,5.19a57.5,57.5,0,0,0-.17,7.79,27.44,27.44,0,0,0,1.12,7q1,3,3.21,3H1019a6.28,6.28,0,0,0,4.76-1.91,9.48,9.48,0,0,0,2.34-5.19,25.93,25.93,0,0,0,.43-4q.09-2.25.09-4.5C1026.61,300.42,1026.58,299,1026.52,297.68Zm-1.82-97.14q-2.6-4.06-10.56-4.07h-6.32c-2.94,0-6.38,0-10.3-.09s-8.14-.09-12.64-.09H959.77q-5.55,0-9,.18a24.42,24.42,0,0,0-11.68,3.37q-4.94,3-4.94,10.48,0,8.15-.09,15.32t-.17,14q-.09,6.84,0,13.68t.43,14.46a16.84,16.84,0,0,0,.35,3,15,15,0,0,0,1.21,3.64,13,13,0,0,0,2.25,3.29,7.09,7.09,0,0,0,3.64,2,70.49,70.49,0,0,0,12.9,1.47q8.91.43,19.13.43,7.11,0,14.2-.17t13.08-.35c4-.11,7.41-.23,10.3-.34s4.85-.18,5.89-.18c3.58-.23,5.94-1.15,7.1-2.77s1.9-4.38,2.25-8.31l.34-55.24Q1027.31,204.61,1024.7,200.54ZM975,256.9c-.24,2.89-.72,4.68-1.47,5.37a5.49,5.49,0,0,1-3.38,1.21,3.85,3.85,0,0,1-2.86-.61,4.62,4.62,0,0,1-1.39-1.81,7.43,7.43,0,0,1-.51-2.34c-.06-.87-.09-1.59-.09-2.17a152.41,152.41,0,0,1-.43-17.23q.25-8.91,1.82-20.86a11,11,0,0,1,1.29-3.55c.64-1.1,1.82-1.65,3.55-1.65a5.45,5.45,0,0,1,2.25.87,6,6,0,0,1,1.56,2.08,9.64,9.64,0,0,1,.7,4.15Z"/></g></g></svg>