<svg xmlns="http://www.w3.org/2000/svg" viewBox="0 0 611.01 368.73"><title>simbol black</title><g id="Capa_2" data-name="Capa 2"><g id="Capa_7" data-name="Capa 7"><path d="M2000-1979.06q-4.83-6.81-15.7-6.88l-116.54-1.16a38.21,38.21,0,0,0-21.87,6.94q-10.44,7-13.87,17.45l-27.56,65.77q-3.24,9.93,1.59,16.75t15.71,6.89l117.1,1.16a38.26,38.26,0,0,0,21.88-6.94q10.42-7,13.87-17.45l27-65.78Q2004.85-1972.22,2000-1979.06Zm-63.66,80.41a7.56,7.56,0,0,1-5.33,2.21h-71.57a7.56,7.56,0,0,1-7.54-7.54,7.56,7.56,0,0,1,2.21-5.33,7.55,7.55,0,0,1,5.33-2.21H1931a7.56,7.56,0,0,1,7.54,7.54A7.56,7.56,0,0,1,1936.34-1898.65Zm76.53,138.35q-3.11-6.81-11.12-6.86l-35.85-.72q-8,0-16.83,7.23a38.14,38.14,0,0,0-12.25,17.72l-23.64,70.5a15.68,15.68,0,0,1-6.85,8.86,18.73,18.73,0,0,1-10.56,3.6q-5.14,0-7.56-3.44t-.61-8.11L1949.06-1836q3.8-9.9-1-16.74t-15.7-6.89l-117.1-1.16q-11.45-.08-22,7.2t-14,17.71l-69.23,192.15q-3.22,9.93,1.7,16.49t15.23,6.62l217.61,2.24q8.58,0,17-7A41.67,41.67,0,0,0,1974-1642.8l38.14-100.76Q2016-1753.47,2012.87-1760.3Z" transform="translate(-1708.78 1987.1)"/><path d="M2224.09-1896.94l-27.56-65.77q-3.45-10.44-13.87-17.45a38.21,38.21,0,0,0-21.87-6.94l-116.54,1.16q-10.87.06-15.7,6.88t-1.59,16.75l27,65.78q3.43,10.44,13.87,17.45a38.26,38.26,0,0,0,21.88,6.94l117.1-1.16q10.86-.06,15.71-6.89T2224.09-1896.94Zm-47.37-1.71a7.56,7.56,0,0,1-5.33,2.21h-71.57a7.56,7.56,0,0,1-7.54-7.54,7.56,7.56,0,0,1,2.21-5.33,7.55,7.55,0,0,1,5.33-2.21h71.57a7.57,7.57,0,0,1,7.55,7.54A7.53,7.53,0,0,1,2176.72-1898.65Zm141.78,254.93-69.23-192.15q-3.45-10.44-14-17.71t-22-7.2l-117.1,1.16q-10.87.06-15.7,6.89t-1,16.74L2141-1671.52q1.82,4.69-.61,8.11t-7.56,3.44a18.73,18.73,0,0,1-10.56-3.6,15.68,15.68,0,0,1-6.85-8.86l-23.64-70.5a38.07,38.07,0,0,0-12.25-17.72q-8.82-7.27-16.83-7.23l-35.85.72q-8,0-11.12,6.86t.69,16.74l38.14,100.76a41.67,41.67,0,0,0,12.44,17.46q8.41,7,17,7l217.61-2.24q10.3,0,15.23-6.62T2318.5-1643.72Z" transform="translate(-1708.78 1987.1)"/><path d="M2062.59-1809.36l-.23-37.35a14,14,0,0,0-4.87-9.5,15.39,15.39,0,0,0-10.54-3.91l-66.44-.66a15,15,0,0,0-10.77,3.94,11.49,11.49,0,0,0-3.75,9.9l-.09,37.34a14,14,0,0,0,4.87,9.51,15.41,15.41,0,0,0,10.54,3.91l66.76.66a15.05,15.05,0,0,0,10.78-3.94A11.49,11.49,0,0,0,2062.59-1809.36Zm-14.89-7.32a6.64,6.64,0,0,1-6.62,6.62h-53.61a6.64,6.64,0,0,1-6.62-6.62v-1.84a6.64,6.64,0,0,1,6.62-6.62h53.61a6.64,6.64,0,0,1,6.62,6.62Z" transform="translate(-1708.78 1987.1)"/></g></g></svg>