<svg xmlns="http://www.w3.org/2000/svg" viewBox="0 0 611.01 368.73"><defs><style>.cls-1{fill:#010c3d;}</style></defs><title>simbol blue1</title><g id="Capa_2" data-name="Capa 2"><g id="Capa_7" data-name="Capa 7"><path class="cls-1" d="M291.23,8q-4.83-6.81-15.7-6.88L159,0a38.18,38.18,0,0,0-21.87,6.94q-10.44,7-13.87,17.45L95.69,90.16q-3.24,9.93,1.59,16.75T113,113.8L230.09,115A38.26,38.26,0,0,0,252,108q10.43-7,13.87-17.45l27-65.78Q296.08,14.88,291.23,8ZM227.57,88.45a7.56,7.56,0,0,1-5.33,2.21H150.67a7.54,7.54,0,0,1,0-15.08h71.57a7.54,7.54,0,0,1,5.33,12.87ZM304.1,226.8Q301,220,293,219.94l-35.85-.72q-8,0-16.83,7.23a38.14,38.14,0,0,0-12.25,17.72l-23.64,70.5a15.68,15.68,0,0,1-6.85,8.86,18.73,18.73,0,0,1-10.56,3.6q-5.15,0-7.56-3.44t-.62-8.11l61.46-164.47q3.81-9.9-1-16.74t-15.7-6.89l-117.1-1.16q-11.46-.07-22,7.2t-14,17.71L1.28,343.38q-3.22,9.93,1.7,16.49t15.23,6.62l217.61,2.24c5.71,0,11.4-2.29,17-7a41.6,41.6,0,0,0,12.45-17.46l38.14-100.76Q307.22,233.63,304.1,226.8Z"/><path class="cls-1" d="M515.32,90.16,487.76,24.39Q484.31,14,473.89,6.94A38.21,38.21,0,0,0,452,0L335.48,1.16q-10.87.06-15.7,6.88t-1.59,16.75l27,65.78Q348.6,101,359,108A38.32,38.32,0,0,0,380.92,115L498,113.8q10.86-.06,15.71-6.89T515.32,90.16ZM468,88.45a7.58,7.58,0,0,1-5.33,2.21H391.05a7.54,7.54,0,0,1,0-15.08h71.57A7.53,7.53,0,0,1,468,88.45ZM609.73,343.38,540.5,151.23q-3.45-10.44-14-17.71t-22-7.2l-117.1,1.16q-10.87.06-15.7,6.89t-1,16.74l61.45,164.47q1.81,4.69-.61,8.11T424,327.13a18.73,18.73,0,0,1-10.56-3.6,15.68,15.68,0,0,1-6.85-8.86L383,244.17a38.07,38.07,0,0,0-12.25-17.72q-8.83-7.27-16.83-7.23l-35.85.72q-8,0-11.12,6.86t.69,16.74L345.74,344.3a41.67,41.67,0,0,0,12.44,17.46c5.6,4.68,11.29,7,17,7l217.61-2.24q10.31,0,15.23-6.62T609.73,343.38Z"/><path class="cls-1" d="M353.82,177.74l-.23-37.35a14,14,0,0,0-4.87-9.5A15.39,15.39,0,0,0,338.18,127l-66.44-.66A15,15,0,0,0,261,130.26a11.49,11.49,0,0,0-3.75,9.9l-.09,37.34A14,14,0,0,0,262,187a15.4,15.4,0,0,0,10.53,3.91l66.77.66a15,15,0,0,0,10.77-3.94A11.47,11.47,0,0,0,353.82,177.74Zm-14.89-7.32a6.64,6.64,0,0,1-6.62,6.62H278.7a6.65,6.65,0,0,1-6.63-6.62v-1.84A6.65,6.65,0,0,1,278.7,162h53.61a6.64,6.64,0,0,1,6.62,6.62Z"/></g></g></svg>